# xmcd CD database file
#
# Track frame offsets:
#	150
#	24855
#	45362
#	53203
#	70290
#	90913
#	101760
#	121500
#	140319
#	160063
#	164754
#	181177
#	205069
#
# Disc length: 3088 seconds
#
# Revision: 1
# Processed by: cddbd v1.5.2PL0 Copyright (c) Steve Scherf et al.
# Submitted via: CDex 1.51
#
DISCID=9c0c0e0d
DTITLE=Oystein Sevag - Link
DYEAR=1993
DGENRE=New Age
TTITLE0=The Door Is Open
TTITLE1=There's A Monk In My Garden!
TTITLE2=Miles Near
TTITLE3=Miles Away
TTITLE4=Trust Your Wings
TTITLE5=The Long Night
TTITLE6=Dance Of Angels
TTITLE7=Picture
TTITLE8=African Flower
TTITLE9=The Door Is Still Open
TTITLE10=Link
TTITLE11=Memory
TTITLE12=My Heart
EXTD=YEAR: 1993
EXTT0=
EXTT1=
EXTT2=
EXTT3=
EXTT4=
EXTT5=
EXTT6=
EXTT7=
EXTT8=
EXTT9=
EXTT10=
EXTT11=
EXTT12=
PLAYORDER=
